<svg width="379" height="54" viewBox="0 0 379 54" fill="none" xmlns="http://www.w3.org/2000/svg">
<g clip-path="url(#clip0)">
<path d="M115.1 2.69998L112.4 7.39998L101.3 26.7L97.7 32.9C97 34.1 95.2 34.1 94.5 32.9L77.1 2.79998C76.4 1.59998 77.3 -1.68113e-05 78.7 -1.68113e-05H113.5C115 -0.100017 115.8 1.39998 115.1 2.69998Z" fill="#00AEEF"/>
<path d="M112.4 7.40002L101.3 26.7L91.4 9.60002C90.9 8.60002 91.5 7.40002 92.7 7.40002H112.4Z" fill="white"/>
<path d="M121 9.60332L107.5 33C107 34 105.6 34 105 33L100.777 25.8054L110.384 7.40332H119.8C120.9 7.50332 121.541 8.66643 121 9.60332Z" fill="white"/>
<path d="M208.7 4.90002L202.6 15.5C202.3 15.9 201.7 15.9 201.5 15.5L195.4 4.90002C195.1 4.50002 195.5 3.90002 196 3.90002H208.2C208.6 3.90002 208.9 4.40002 208.7 4.90002Z" fill="#00AEEF"/>
<path d="M93 52.4H77.2C71.4 52.4 66.1 49.4 63.1 44.5L43 9.59999C42.4 8.59999 43.1 7.29999 44.3 7.29999H60C65.8 7.29999 71.1 10.3 74.1 15.2L94.3 50.1C94.9 51.1 94.2 52.4 93 52.4Z" fill="white"/>
<path d="M54.7 52.4H39C33.2 52.4 27.9 49.4 24.9 44.5L0.5 2.20002C-0.0999999 1.20002 0.599999 -0.0999756 1.8 -0.0999756H17.6C23.4 -0.0999756 28.7 2.90002 31.7 7.80002L56 50.1C56.6 51.1 55.9 52.4 54.7 52.4Z" fill="#00AEEF"/>
<path d="M144.4 22.9L151.5 38.8L159.1 22.9H165.7L173.3 39.3L180.8 22.9H192.8L177.1 53H169.8L162.3 36.4L155.1 53H147.8L132.3 22.9H144.4Z" fill="white"/>
<path d="M207.4 22.9H196.6V53H207.4V22.9Z" fill="white"/>
<path d="M216.7 43C218 43.9 219.5 44.8 221 45.2C222.3 45.7 224 45.9 225.2 45.9C226 45.9 227.3 45.7 228 45.1C228.5 44.6 228.5 44.2 228.5 43.7C228.5 43.2 228.4 42.8 228 42.4C227.3 41.8 226.2 41.6 225.2 41.3L222.4 40.6C220.9 40.3 218.8 39.7 217.1 38C216 36.8 215.1 35.1 215.1 32.8C215.1 29.9 216.2 27.2 217.9 25.5C220.2 23.1 224.2 21.9 228.7 21.9C233.1 21.9 236.6 23.1 238.3 23.9L234.7 30.8C233.2 30.1 231 29.3 229 29.3C227.9 29.3 227.2 29.5 226.5 29.9C225.9 30.2 225.6 30.7 225.6 31.4C225.6 32.3 226.2 32.8 226.9 33.1C227.9 33.5 228.8 33.5 230.5 34L232.5 34.5C233.9 34.9 236.1 36 236.9 36.9C238.4 38.3 239.2 40.7 239.2 42.9C239.2 46.5 237.7 49 236.2 50.4C232.7 53.9 227.6 54.2 225.1 54.2C222.4 54.2 218.2 53.9 213 50.7L216.7 43Z" fill="white"/>
<path d="M278.7 53H267.9V49.7C264.9 53.6 260.9 54 258.8 54C254.5 54 251.1 52.6 248.2 49.8C245.2 46.8 243.4 42.6 243.4 37.8C243.4 32.7 245.6 28.5 248.3 25.9C251.3 23.1 255.2 21.9 258.9 21.9C263 21.9 265.9 23.7 267.9 25.8V3.90002H278.7V53ZM266 43C267.4 41.7 268.3 39.7 268.3 37.9C268.3 36.2 267.4 34.2 266.3 33C265.1 31.7 263.4 31 261.4 31C259.1 31 257.6 32 256.6 33C255.4 34.2 254.5 36.1 254.5 38.1C254.5 39.6 255.2 41.4 256.6 42.8C258.1 44.3 259.8 44.8 261.4 44.8C263.1 44.8 264.8 44 266 43Z" fill="white"/>
<path d="M316.4 49C312.4 52.9 307.8 54 302.9 54C298.5 54 293.7 53.1 289.5 49C286.2 45.8 284.9 41.9 284.9 37.9C284.9 32.5 287.3 29 289.5 26.9C292 24.5 296.4 21.9 302.9 21.9C309.6 21.9 313.9 24.5 316.4 26.9C318.6 29.1 321 32.6 321 37.9C321.1 41.9 319.7 45.8 316.4 49ZM298.2 33C296.9 34.3 296.1 36.2 296.1 37.9C296.1 39.7 297 41.5 298.2 42.7C299.5 44 301.2 44.7 303 44.7C304.8 44.7 306.5 44 307.8 42.7C309.1 41.4 309.9 39.7 309.9 37.9C309.9 36.3 309.2 34.3 307.8 33C306.6 31.9 304.7 31 303 31C301.3 31 299.4 31.8 298.2 33Z" fill="white"/>
<path d="M327.3 22.9H338.1V26.5C340.7 23.4 344.2 22.3 347.1 22.3C349.3 22.3 351.3 22.8 352.9 23.6C355.1 24.7 356.3 26.4 357.1 27.9C358.3 25.7 359.9 24.5 361.2 23.7C363.4 22.5 365.4 22.2 367.5 22.2C369.7 22.2 373.4 22.5 375.9 25C378.6 27.6 378.7 31.2 378.7 33.3V53H367.9V38.1C367.9 34.9 367.6 32.8 366.4 31.6C365.8 31.1 365 30.6 363.6 30.6C362.4 30.6 361.4 30.9 360.4 31.8C358.6 33.6 358.4 36 358.4 37.5V53H347.6V38.1C347.6 35.2 347.4 32.9 346.2 31.6C345.3 30.6 344 30.4 343 30.4C341.9 30.4 340.9 30.6 340 31.5C338.1 33.3 338.1 36.2 338.1 38.1V53H327.3V22.9Z" fill="white"/>
</g>
<defs>
<clipPath id="clip0">
<rect width="379" height="54" fill="white"/>
</clipPath>
</defs>
</svg>
