<svg width="404" height="78" viewBox="0 0 404 78" fill="none" xmlns="http://www.w3.org/2000/svg">
<path d="M126.1 14.7L123.4 19.4L112.3 38.7L108.7 44.9C108 46.1 106.2 46.1 105.5 44.9L88.1 14.8C87.4 13.6 88.3 12 89.7 12H124.5C126 11.9 126.8 13.4 126.1 14.7Z" fill="#00AEEF"/>
<path d="M123.4 19.4L112.3 38.7L102.4 21.6C101.9 20.6 102.5 19.4 103.7 19.4H123.4Z" fill="#4A3894"/>
<path d="M132 21.5L118.5 45C118 46 116.6 46 116 45L112.3 38.6L123.4 19.3H130.8C131.9 19.4 132.6 20.6 132 21.5Z" fill="#5B45B4"/>
<path d="M219.7 16.9L213.6 27.5C213.3 27.9 212.7 27.9 212.5 27.5L206.4 16.9C206.1 16.5 206.5 15.9 207 15.9H219.2C219.6 15.9 219.9 16.4 219.7 16.9Z" fill="#00AEEF"/>
<path d="M104 64.4001H88.2C82.4 64.4001 77.1 61.4 74.1 56.5L54 21.6C53.4 20.6 54.1 19.3 55.3 19.3H71C76.8 19.3 82.1 22.3001 85.1 27.2001L105.3 62.1C105.9 63.1 105.2 64.4001 104 64.4001Z" fill="#5B45B4"/>
<path d="M65.7 64.4H50C44.2 64.4 38.9 61.4 35.9 56.5L11.5 14.2C10.9 13.2 11.6 11.9 12.8 11.9H28.6C34.4 11.9 39.7 14.9 42.7 19.8L67 62.1C67.6 63.1 66.9 64.4 65.7 64.4Z" fill="#00AEEF"/>
<path d="M155.4 34.9L162.5 50.8L170.1 34.9H176.7L184.3 51.3L191.8 34.9H203.8L188.1 65H180.8L173.3 48.4L166.1 65H158.8L143.3 34.9H155.4Z" fill="black"/>
<path d="M218.4 34.9H207.6V65H218.4V34.9Z" fill="black"/>
<path d="M227.7 55C229 55.9 230.5 56.8 232 57.2C233.3 57.7 235 57.9 236.2 57.9C237 57.9 238.3 57.7 239 57.1C239.5 56.6 239.5 56.2 239.5 55.7C239.5 55.2 239.4 54.8 239 54.4C238.3 53.8 237.2 53.6 236.2 53.3L233.4 52.6C231.9 52.3 229.8 51.7 228.1 50C227 48.8 226.1 47.1 226.1 44.8C226.1 41.9 227.2 39.2 228.9 37.5C231.2 35.1 235.2 33.9 239.7 33.9C244.1 33.9 247.6 35.1 249.3 35.9L245.7 42.8C244.2 42.1 242 41.3 240 41.3C238.9 41.3 238.2 41.5 237.5 41.9C236.9 42.2 236.6 42.7 236.6 43.4C236.6 44.3 237.2 44.8 237.9 45.1C238.9 45.5 239.8 45.5 241.5 46L243.5 46.5C244.9 46.9 247.1 48 247.9 48.9C249.4 50.3 250.2 52.7 250.2 54.9C250.2 58.5 248.7 61 247.2 62.4C243.7 65.9 238.6 66.2 236.1 66.2C233.4 66.2 229.2 65.9 224 62.7L227.7 55Z" fill="black"/>
<path d="M289.7 65H278.9V61.7C275.9 65.6 271.9 66 269.8 66C265.5 66 262.1 64.6 259.2 61.8C256.2 58.8 254.4 54.6 254.4 49.8C254.4 44.7 256.6 40.5 259.3 37.9C262.3 35.1 266.2 33.9 269.9 33.9C274 33.9 276.9 35.7 278.9 37.8V15.9H289.7V65V65ZM277 55C278.4 53.7 279.3 51.7 279.3 49.9C279.3 48.2 278.4 46.2 277.3 45C276.1 43.7 274.4 43 272.4 43C270.1 43 268.6 44 267.6 45C266.4 46.2 265.5 48.1 265.5 50.1C265.5 51.6 266.2 53.4 267.6 54.8C269.1 56.3 270.8 56.8 272.4 56.8C274.1 56.8 275.8 56 277 55Z" fill="black"/>
<path d="M327.4 61C323.4 64.9 318.8 66 313.9 66C309.5 66 304.7 65.1 300.5 61C297.2 57.8 295.9 53.9 295.9 49.9C295.9 44.5 298.3 41 300.5 38.9C303 36.5 307.4 33.9 313.9 33.9C320.6 33.9 324.9 36.5 327.4 38.9C329.6 41.1 332 44.6 332 49.9C332.1 53.9 330.7 57.8 327.4 61ZM309.2 45C307.9 46.3 307.1 48.2 307.1 49.9C307.1 51.7 308 53.5 309.2 54.7C310.5 56 312.2 56.7 314 56.7C315.8 56.7 317.5 56 318.8 54.7C320.1 53.4 320.9 51.7 320.9 49.9C320.9 48.3 320.2 46.3 318.8 45C317.6 43.9 315.7 43 314 43C312.3 43 310.4 43.8 309.2 45Z" fill="black"/>
<path d="M338.3 34.9H349.1V38.5C351.7 35.4 355.2 34.2999 358.1 34.2999C360.3 34.2999 362.3 34.7999 363.9 35.5999C366.1 36.6999 367.3 38.4 368.1 39.9C369.3 37.7 370.9 36.5 372.2 35.7C374.4 34.5 376.4 34.2 378.5 34.2C380.7 34.2 384.4 34.5 386.9 37C389.6 39.6 389.7 43.2 389.7 45.3V65H378.9V50.0999C378.9 46.8999 378.6 44.7999 377.4 43.5999C376.8 43.0999 376 42.5999 374.6 42.5999C373.4 42.5999 372.4 42.9 371.4 43.8C369.6 45.6 369.4 48 369.4 49.5V65H358.6V50.0999C358.6 47.1999 358.4 44.8999 357.2 43.5999C356.3 42.5999 355 42.4 354 42.4C352.9 42.4 351.9 42.6 351 43.5C349.1 45.3 349.1 48.1999 349.1 50.0999V65H338.3V34.9V34.9Z" fill="black"/>
</svg>
