<svg width="465" height="124" viewBox="0 0 465 124" fill="none" xmlns="http://www.w3.org/2000/svg">
<path d="M147.1 35.7L144.4 40.4L133.3 59.7L129.7 65.9C129 67.1 127.2 67.1 126.5 65.9L109.1 35.8C108.4 34.6 109.3 33 110.7 33H145.5C147 32.9 147.8 34.4 147.1 35.7Z" fill="#00AEEF"/>
<path d="M144.4 40.4L133.3 59.7L123.4 42.6C122.9 41.6 123.5 40.4 124.7 40.4H144.4Z" fill="white"/>
<path d="M153 42.6033L139.5 66C139 67 137.6 67 137 66L132.777 58.8054L142.384 40.4033H151.8C152.9 40.5033 153.541 41.6664 153 42.6033Z" fill="white"/>
<path d="M240.7 37.9L234.6 48.5C234.3 48.9 233.7 48.9 233.5 48.5L227.4 37.9C227.1 37.5 227.5 36.9 228 36.9H240.2C240.6 36.9 240.9 37.4 240.7 37.9Z" fill="#00AEEF"/>
<path d="M125 85.4H109.2C103.4 85.4 98.1 82.4 95.1 77.5L75 42.6C74.4 41.6 75.1 40.3 76.3 40.3H92C97.8 40.3 103.1 43.3 106.1 48.2L126.3 83.1C126.9 84.1 126.2 85.4 125 85.4Z" fill="white"/>
<path d="M86.7 85.4H71C65.2 85.4 59.9 82.4 56.9 77.5L32.5 35.2C31.9 34.2 32.6 32.9 33.8 32.9H49.6C55.4 32.9 60.7 35.9 63.7 40.8L88 83.1C88.6 84.1 87.9 85.4 86.7 85.4Z" fill="#00AEEF"/>
<path d="M176.4 55.9L183.5 71.8L191.1 55.9H197.7L205.3 72.3L212.8 55.9H224.8L209.1 86H201.8L194.3 69.4L187.1 86H179.8L164.3 55.9H176.4Z" fill="white"/>
<path d="M239.4 55.9H228.6V86H239.4V55.9Z" fill="white"/>
<path d="M248.7 76C250 76.9 251.5 77.8 253 78.2C254.3 78.7 256 78.9 257.2 78.9C258 78.9 259.3 78.7 260 78.1C260.5 77.6 260.5 77.2 260.5 76.7C260.5 76.2 260.4 75.8 260 75.4C259.3 74.8 258.2 74.6 257.2 74.3L254.4 73.6C252.9 73.3 250.8 72.7 249.1 71C248 69.8 247.1 68.1 247.1 65.8C247.1 62.9 248.2 60.2 249.9 58.5C252.2 56.1 256.2 54.9 260.7 54.9C265.1 54.9 268.6 56.1 270.3 56.9L266.7 63.8C265.2 63.1 263 62.3 261 62.3C259.9 62.3 259.2 62.5 258.5 62.9C257.9 63.2 257.6 63.7 257.6 64.4C257.6 65.3 258.2 65.8 258.9 66.1C259.9 66.5 260.8 66.5 262.5 67L264.5 67.5C265.9 67.9 268.1 69 268.9 69.9C270.4 71.3 271.2 73.7 271.2 75.9C271.2 79.5 269.7 82 268.2 83.4C264.7 86.9 259.6 87.2 257.1 87.2C254.4 87.2 250.2 86.9 245 83.7L248.7 76Z" fill="white"/>
<path d="M310.7 86H299.9V82.7C296.9 86.6 292.9 87 290.8 87C286.5 87 283.1 85.6 280.2 82.8C277.2 79.8 275.4 75.6 275.4 70.8C275.4 65.7 277.6 61.5 280.3 58.9C283.3 56.1 287.2 54.9 290.9 54.9C295 54.9 297.9 56.7 299.9 58.8V36.9H310.7V86ZM298 76C299.4 74.7 300.3 72.7 300.3 70.9C300.3 69.2 299.4 67.2 298.3 66C297.1 64.7 295.4 64 293.4 64C291.1 64 289.6 65 288.6 66C287.4 67.2 286.5 69.1 286.5 71.1C286.5 72.6 287.2 74.4 288.6 75.8C290.1 77.3 291.8 77.8 293.4 77.8C295.1 77.8 296.8 77 298 76Z" fill="white"/>
<path d="M348.4 82C344.4 85.9 339.8 87 334.9 87C330.5 87 325.7 86.1 321.5 82C318.2 78.8 316.9 74.9 316.9 70.9C316.9 65.5 319.3 62 321.5 59.9C324 57.5 328.4 54.9 334.9 54.9C341.6 54.9 345.9 57.5 348.4 59.9C350.6 62.1 353 65.6 353 70.9C353.1 74.9 351.7 78.8 348.4 82ZM330.2 66C328.9 67.3 328.1 69.2 328.1 70.9C328.1 72.7 329 74.5 330.2 75.7C331.5 77 333.2 77.7 335 77.7C336.8 77.7 338.5 77 339.8 75.7C341.1 74.4 341.9 72.7 341.9 70.9C341.9 69.3 341.2 67.3 339.8 66C338.6 64.9 336.7 64 335 64C333.3 64 331.4 64.8 330.2 66Z" fill="white"/>
<path d="M359.3 55.9H370.1V59.5C372.7 56.4 376.2 55.3 379.1 55.3C381.3 55.3 383.3 55.8 384.9 56.6C387.1 57.7 388.3 59.4 389.1 60.9C390.3 58.7 391.9 57.5 393.2 56.7C395.4 55.5 397.4 55.2 399.5 55.2C401.7 55.2 405.4 55.5 407.9 58C410.6 60.6 410.7 64.2 410.7 66.3V86H399.9V71.1C399.9 67.9 399.6 65.8 398.4 64.6C397.8 64.1 397 63.6 395.6 63.6C394.4 63.6 393.4 63.9 392.4 64.8C390.6 66.6 390.4 69 390.4 70.5V86H379.6V71.1C379.6 68.2 379.4 65.9 378.2 64.6C377.3 63.6 376 63.4 375 63.4C373.9 63.4 372.9 63.6 372 64.5C370.1 66.3 370.1 69.2 370.1 71.1V86H359.3V55.9Z" fill="white"/>
</svg>
